<?xml version="1.0" standalone="no"?>
<!DOCTYPE svg PUBLIC "-//W3C//DTD SVG 20010904//EN"
 "http://www.w3.org/TR/2001/REC-SVG-20010904/DTD/svg10.dtd">
<svg version="1.0" xmlns="http://www.w3.org/2000/svg"
 width="3859.000000pt" height="809.000000pt" viewBox="0 0 3859.000000 809.000000"
 preserveAspectRatio="xMidYMid meet">
<metadata>
Created by potrace 1.16, written by Peter Selinger 2001-2019
</metadata>
<g transform="translate(0.000000,809.000000) scale(0.100000,-0.100000)"
fill="#000000" stroke="none">
<path d="M6235 8057 c-80 -38 -147 -131 -170 -235 -25 -117 -528 -1371 -1408
-3512 -733 -1785 -892 -2168 -899 -2162 -3 4 -20 41 -36 82 -61 152 -246 581
-510 1175 -321 725 -396 903 -639 1515 -574 1446 -1016 2580 -1078 2770 -26
80 -59 169 -73 198 -29 59 -96 126 -147 148 -48 20 -151 18 -200 -5 -49 -22
-109 -86 -123 -132 -11 -35 -61 -427 -312 -2489 -120 -987 -335 -2726 -570
-4620 -62 -501 -69 -587 -47 -630 18 -36 56 -33 83 7 42 63 64 184 134 753
227 1835 663 5317 666 5330 3 8 28 -39 56 -105 355 -846 851 -1997 1448 -3360
226 -517 438 -1007 471 -1090 68 -169 105 -227 175 -274 67 -44 133 -62 254
-68 173 -8 306 32 429 130 l53 43 178 429 c222 540 383 922 795 1885 394 922
683 1606 856 2028 71 172 133 320 137 329 6 10 11 -8 16 -58 24 -248 728
-5835 739 -5867 61 -176 177 -225 537 -226 386 -2 496 50 494 229 -1 39 -209
1719 -463 3735 -254 2016 -467 3708 -472 3760 -14 138 -55 214 -150 277 -58
38 -156 43 -224 10z"/>
<path d="M8670 8055 c-193 -41 -264 -101 -290 -245 -15 -79 -5 -4158 11 -4525
51 -1217 293 -1970 794 -2470 282 -282 672 -502 1118 -631 612 -177 1426 -215
1982 -93 372 82 733 244 1027 461 308 227 520 479 697 828 263 518 394 1159
419 2052 5 150 5 1189 1 2308 -6 1805 -9 2043 -23 2104 -18 80 -39 116 -66
116 -27 0 -50 -39 -67 -113 -19 -80 -29 -746 -38 -2507 -6 -1309 -16 -1937
-36 -2235 -44 -677 -167 -1196 -386 -1628 -121 -238 -246 -409 -429 -587 -185
-179 -334 -283 -569 -396 -773 -372 -1750 -328 -2406 107 -134 89 -324 281
-418 424 -227 341 -370 806 -440 1431 -20 176 -31 308 -52 634 -7 104 -14
1013 -19 2440 -8 2528 -2 2332 -75 2417 -39 46 -100 79 -184 101 -82 20 -465
26 -551 7z"/>
<path d="M16230 8059 c-192 -8 -258 -21 -311 -66 -17 -15 -37 -41 -44 -58 -10
-24 -10 -826 0 -3923 12 -3773 13 -3894 31 -3914 46 -51 24 -50 948 -49 1545
1 3139 12 3228 22 100 11 138 25 138 50 0 19 -32 33 -117 48 -84 16 -775 31
-1968 41 -616 6 -1138 14 -1159 19 -74 18 -71 5 -71 354 0 172 1 1880 3 3797
1 1997 -2 3501 -7 3523 -17 72 -62 113 -151 137 -64 17 -314 26 -520 19z"/>
<path d="M20345 8050 c-141 -8 -203 -29 -235 -82 -11 -18 -20 -41 -20 -51 0
-10 34 -109 76 -220 169 -447 419 -1056 948 -2305 482 -1139 719 -1702 1071
-2552 151 -363 138 -231 144 -1465 6 -989 7 -1053 25 -1100 26 -71 51 -109
103 -154 57 -51 124 -76 256 -95 353 -53 595 34 664 238 17 47 18 137 18 1216
0 1092 1 1170 18 1244 28 120 53 176 350 776 453 914 1398 2844 1402 2860 2 9
63 135 137 280 153 301 260 530 389 831 122 285 119 299 -14 81 -196 -321
-389 -666 -535 -959 -45 -89 -86 -164 -91 -167 -5 -4 -102 -187 -214 -409
-899 -1766 -1531 -2995 -1547 -3012 -18 -17 -22 -18 -34 -5 -21 21 -282 621
-1096 2520 -1003 2338 -999 2330 -1033 2378 -97 136 -315 178 -782 152z"/>
<path d="M37310 8041 c-95 -31 -164 -94 -209 -191 -17 -36 -75 -204 -130 -375
-55 -170 -378 -1172 -719 -2225 -341 -1053 -805 -2490 -1033 -3193 -227 -702
-416 -1274 -420 -1270 -3 5 -45 125 -92 268 -247 748 -1675 5092 -1927 5860
-161 490 -303 911 -316 937 -69 137 -193 196 -328 156 -50 -15 -129 -90 -144
-139 -11 -33 -91 -676 -352 -2814 -103 -845 -221 -1804 -535 -4335 -57 -461
-63 -548 -42 -590 18 -36 56 -33 83 7 41 62 64 187 129 710 245 1982 671 5373
675 5373 3 0 223 -665 489 -1478 978 -2980 1463 -4453 1484 -4502 60 -139 204
-213 442 -226 185 -10 343 36 432 128 39 40 49 63 146 343 226 651 473 1401
922 2805 484 1512 922 2859 934 2872 3 4 30 -185 59 -420 433 -3494 684 -5467
701 -5517 40 -114 90 -154 233 -187 81 -19 121 -22 308 -22 389 1 485 46 484
224 -1 36 -130 1089 -288 2340 -488 3872 -636 5052 -646 5145 -5 50 -17 111
-25 137 -20 58 -84 132 -138 160 -44 22 -137 32 -177 19z"/>
<path d="M27498 7899 c-9 -13 -55 -98 -103 -189 -48 -91 -137 -252 -198 -359
-127 -225 -232 -436 -267 -539 -22 -67 -23 -73 -7 -84 18 -14 55 -115 534
-1453 617 -1726 883 -2484 883 -2513 -1 -50 95 -47 -1552 -52 l-1532 -5 -27
-85 c-43 -133 -56 -122 139 -115 92 3 622 10 1177 14 1064 10 1711 3 1780 -19
87 -27 163 -153 263 -435 33 -93 167 -456 297 -805 130 -349 254 -687 277
-750 81 -234 159 -346 282 -405 115 -55 217 -68 491 -62 127 3 245 10 264 16
54 17 81 48 81 93 0 24 -60 202 -164 490 -245 677 -617 1719 -1174 3298 -717
2029 -1392 3915 -1422 3969 -6 11 -11 9 -22 -10z"/>
<path d="M3417 1025 c-51 -235 -189 -374 -420 -424 l-82 -18 76 -17 c245 -55
386 -203 431 -455 l11 -66 13 65 c37 193 121 327 246 389 34 17 67 31 74 31
34 0 144 42 144 55 0 8 -8 15 -18 15 -34 0 -134 30 -189 57 -70 34 -151 115
-191 190 -29 54 -67 174 -74 233 -2 15 -10 -8 -21 -55z"/>
</g>
</svg>
